<svg xmlns:svg="http://www.w3.org/2000/svg" id="svg20288" height="512" viewBox="0 0 16.933333 16.933334" width="512"
     xmlns="http://www.w3.org/2000/svg">
    <g id="layer1" transform="translate(0 -280.067)">
        <path id="path15271"
              d="m8.466146 281.65464c-3.6599046 0-6.6151009 2.95314-6.6151009 6.61304-.0005291.16808.1537452.29405.3183268.25993l1.3223999-.26355c.1239314-.0247.2131087-.13357.2129068-.25993 0-2.47874 2.2827316-4.76147 4.7614674-4.76147 2.478733 0 4.76405 2.28273 4.76405 4.76147-.000529.12573.08773.23438.210839.25993l1.323951.26355c.164021.033.317101-.0926.316775-.25993 0-3.6599-2.955713-6.61304-6.615615-6.61304zm-.00362 6.47868c-.1453118.003-.2613607.12184-.2599346.26717v6.35c0 .35312.5296852.35312.5296852 0v-6.35c.00159-.14918-.1205997-.27008-.2697506-.26717zm-4.4943007.66404c-.728319 0-1.3218832.59563-1.3218832 1.32395v3.43958c0 .72832.5935642 1.3224 1.3218832 1.3224.7283194 0 1.324468-.59408 1.324468-1.3224v-3.43958c0-.72832-.5961486-1.32395-1.324468-1.32395zm8.9963507 0c-.728319 0-1.322401.59563-1.322401 1.32395v3.43958c.000008.72832.59409 1.3224 1.322409 1.3224.728321 0 1.321882-.59408 1.321882-1.3224v-3.43958c0-.72832-.593561-1.32395-1.321882-1.32395zm-5.82031.66198v4.2323c-.00802.36069.537173.36069.5291667 0v-4.2323c.00265-.14916-.118798-.27836-.2813765-.26846-.1496192.009-.2502773.13228-.2477902.26846zm2.1171853 0v4.2323c-.034526.38437.5616231.38437.5270976 0v-4.2323c.00265-.14916-.1188217-.27876-.2811198-.26846-.148807.009-.2485522.13281-.2459778.26846zm-7.4026499.66197c-.443548-.012-.800468.35801-.800468.79323v1.85157c0 .43516.3575555.79478.7927165.79478h.2656168v-3.43958zm12.9573496 0v3.43958h.265615c.43516 0 .792718-.35962.792718-.79478v-1.85157c0-.43516-.357558-.79323-.792718-.79323zm-4.236434.12713c-.147148.001-.264867.12262-.262001.26975v2.11718c0 .35312.529685.35312.529685 0v-2.11718c.0029-.14936-.118308-.27152-.267684-.26975zm-4.2343683.52916c-.1463331.003-.2627974.12342-.259932.26975v2.11719c0 .35312.5296826.35312.5296826 0v-2.11719c.00294-.15018-.1195678-.27269-.2697506-.26975z"
              font-variant-ligatures="normal" font-variant-position="normal" font-variant-caps="normal"
              font-variant-numeric="normal" font-variant-alternates="normal" font-feature-settings="normal"
              text-indent="0" text-align="start" text-decoration-line="none" text-decoration-style="solid"
              text-decoration-color="rgb(0,0,0)" text-transform="none" text-orientation="mixed" white-space="normal"
              shape-padding="0" isolation="auto" mix-blend-mode="normal" solid-color="rgb(0,0,0)" solid-opacity="1"
              vector-effect="none"/>
    </g>
</svg>