<svg id="Layer_1" enable-background="new 0 0 24 24" height="512" viewBox="0 0 24 24" width="512" xmlns="http://www.w3.org/2000/svg"><switch><g><path d="m12 13c-.6 0-1 .4-1 1v3c0 .6.4 1 1 1s1-.4 1-1v-3c0-.6-.4-1-1-1zm5-4h-8v-2c0-1.7 1.3-3 3-3 .8 0 1.6.3 2.1.9.4.4.6.9.8 1.4.1.5.7.8 1.2.7s.9-.7.7-1.2c-.2-.9-.7-1.7-1.3-2.3-2-1.9-5.1-1.9-7.1 0-.9.9-1.4 2.2-1.4 3.5v2c-1.7 0-3 1.3-3 3v7c0 1.7 1.3 3 3 3h10c1.7 0 3-1.3 3-3v-7c0-1.7-1.3-3-3-3zm1 10c0 .6-.4 1-1 1h-10c-.6 0-1-.4-1-1v-7c0-.6.4-1 1-1h10c.6 0 1 .4 1 1z"/></g></switch></svg>